PathFileType	4	(X/Y/Z)	C:/Users/opensim2020/Desktop/walking_exp_matlab/subject02_walking13_straight_04.trc	
DataRate	CameraRate	NumFrames	NumMarkers	Units	OrigDataRate	OrigDataStartFrame	OrigNumFrames	
100.00	100.00	4	41	mm	100.00	1780	118	
Frame#	Time	LFHD			RFHD			LBHD			RBHD			C7			T10			CLAV			STRN			RBAK			LSHO			LUPA			LELB			LFRM			LWRA			LWRB			LFIN			RSHO			RUPA			RELB			RFRM			RWRA			RWRB			RFIN			LASI			RASI			LPSI			RPSI			LTHI			LKNE			LTIB			LANK			LHEE			LTOE			RTHI			RKNE			RTIB			RANK			RHEE			RTOE			*39			*40			
		X1	Y1	Z1	X2	Y2	Z2	X3	Y3	Z3	X4	Y4	Z4	X5	Y5	Z5	X6	Y6	Z6	X7	Y7	Z7	X8	Y8	Z8	X9	Y9	Z9	X10	Y10	Z10	X11	Y11	Z11	X12	Y12	Z12	X13	Y13	Z13	X14	Y14	Z14	X15	Y15	Z15	X16	Y16	Z16	X17	Y17	Z17	X18	Y18	Z18	X19	Y19	Z19	X20	Y20	Z20	X21	Y21	Z21	X22	Y22	Z22	X23	Y23	Z23	X24	Y24	Z24	X25	Y25	Z25	X26	Y26	Z26	X27	Y27	Z27	X28	Y28	Z28	X29	Y29	Z29	X30	Y30	Z30	X31	Y31	Z31	X32	Y32	Z32	X33	Y33	Z33	X34	Y34	Z34	X35	Y35	Z35	X36	Y36	Z36	X37	Y37	Z37	X38	Y38	Z38	X39	Y39	Z39	X40	Y40	Z40	X41	Y41	Z41	

45	0.440	1461.65820	244.27628	1715.07007	1322.06616	268.71130	1688.77124	1494.30359	380.28540	1658.63049	1357.10962	416.45526	1632.62305	1430.08984	458.38080	1511.84412	1428.06995	511.56653	1233.84607	1439.74426	320.15036	1443.05273	1440.64685	267.48874	1271.69531	1373.19775	518.93036	1331.72424	1604.87817	385.60394	1496.80981	1725.96216	355.56381	1324.34534	1777.80408	307.16785	1200.74438	1813.22998	224.38771	1100.88843	1801.71741	104.30794	1030.75720	1834.64075	144.89467	1009.29541	1848.17297	91.00629	972.18317	1244.02344	389.20883	1468.83777	1168.05542	448.20505	1284.49365	1150.84583	457.36154	1138.21606	1134.56458	445.90326	1018.10004	1156.35425	414.73715	886.70557	1123.74475	461.58701	888.56799	1124.25464	432.02057	821.04095	1584.59875	310.04517	971.66327	1330.74731	277.52423	959.50726	1475.71716	505.86716	1020.23242	1363.26648	498.59985	1016.01306	1623.33704	430.77533	668.11298	1589.02197	500.46246	475.16690	1588.85303	591.31042	301.95499	1554.38818	623.15009	78.33810	1503.43054	661.21198	52.26907	1571.93799	470.02429	34.02960	1252.99133	267.23169	666.62750	1296.84839	197.48717	473.93781	1291.94958	176.16417	287.72385	1327.53015	125.01999	100.58258	1388.49683	134.75987	42.47995	1307.32764	-35.88582	90.30430	1382.75171	350.26895	1788.42627	-3357.41919	2846.01758	1034.29565 
46	0.450	1461.26514	230.63664	1712.22827	1321.93713	255.46172	1685.79736	1494.29773	366.64041	1656.03491	1357.37732	403.51633	1629.76746	1430.25171	445.17029	1508.91028	1427.87964	498.11362	1230.93579	1440.00354	306.80457	1440.24402	1441.30798	254.05865	1269.05823	1373.52271	505.37909	1328.70068	1604.39954	372.08875	1494.59363	1726.32434	339.47284	1323.70264	1779.32178	289.45651	1201.40479	1814.87366	202.82053	1104.70081	1803.75842	79.90401	1040.04077	1836.23438	119.70921	1016.43292	1850.15381	64.23859	981.97137	1244.23865	376.08789	1465.73730	1168.39612	436.37946	1282.07593	1151.53003	447.53403	1136.05994	1134.25073	438.33646	1015.61365	1155.00806	409.62692	883.69867	1123.28442	457.05817	886.80066	1122.80225	428.75116	818.59198	1584.86670	297.20569	969.40131	1331.07507	262.95901	956.95001	1475.15686	492.58475	1016.76776	1363.12732	484.61487	1012.47266	1623.81506	421.80682	666.54614	1588.80469	493.45035	474.45099	1588.17358	586.86017	302.47095	1554.02844	622.52722	79.61810	1502.88965	660.72089	54.07706	1572.11694	469.89795	33.95506	1252.96826	256.75296	662.00348	1298.13269	184.53822	470.98669	1291.23792	151.96170	287.63266	1325.18628	91.94122	102.28222	1385.82190	100.03906	44.08253	1308.51135	-71.03587	97.42567	1382.35620	336.61441	1785.49402	-3357.39697	2845.88452	1034.21362 
47	0.460	1460.73022	216.93910	1709.45679	1321.50684	242.03711	1682.86389	1494.10571	352.98645	1653.50781	1357.30872	390.08505	1627.03613	1430.24939	431.99823	1506.04956	1427.65308	484.53296	1228.05920	1440.05322	293.42419	1437.57922	1441.82275	241.06732	1266.35364	1374.09204	492.17877	1325.88916	1604.32043	358.96710	1492.52258	1726.68433	323.88376	1323.08716	1780.10645	271.80072	1201.51965	1816.24585	181.80319	1108.33582	1805.11877	56.40568	1048.85596	1837.20825	95.32088	1023.29425	1851.63318	38.41722	991.61133	1244.32532	362.81323	1462.66809	1169.06116	425.60687	1279.43579	1152.17883	437.52560	1133.86328	1134.02209	430.57431	1013.70508	1153.59607	404.02081	880.97418	1122.69116	451.86362	885.09460	1121.17529	424.91116	816.24451	1585.14050	284.09128	967.09448	1331.54639	248.24199	954.46936	1474.56702	478.91492	1013.31604	1362.81091	470.19470	1008.97729	1624.23267	412.31644	665.04242	1588.58289	486.10110	473.92902	1587.81531	582.55695	303.78046	1553.69238	621.78796	81.13436	1502.36743	660.27795	56.38475	1572.30188	469.77591	33.83591	1252.49219	247.12509	657.83392	1298.85388	170.51639	468.54565	1290.07532	130.11554	287.63852	1323.21191	62.05828	104.28461	1383.05444	69.12876	45.56653	1311.17065	-102.38417	104.43056	1381.93884	323.01407	1782.81323	-3357.51782	2846.00659	1034.34216 
48	0.470	1460.35266	203.39880	1706.91479	1320.94531	228.59996	1680.01013	1493.82715	339.32220	1651.13464	1357.08826	376.70847	1624.46533	1430.03760	418.77917	1503.33838	1427.37610	470.84048	1225.26758	1439.97070	280.02664	1435.15332	1442.08484	227.43729	1264.01123	1374.19360	478.56131	1322.92383	1603.70984	345.68573	1490.23926	1726.80396	308.52734	1322.21655	1781.06323	254.76698	1201.75391	1816.81348	161.11180	1111.58020	1805.95056	33.88974	1057.39014	1837.80603	71.79769	1030.07642	1852.52161	13.61852	1000.98096	1244.23657	349.61563	1459.67786	1169.04504	413.45328	1277.09473	1152.72913	427.29294	1131.63916	1133.38342	422.49969	1011.57117	1152.02258	397.97137	878.30133	1122.06006	446.15866	883.48041	1119.65503	420.52161	814.11853	1585.44641	270.80029	964.68256	1332.15625	233.24541	952.24902	1473.92847	465.03528	1010.10107	1362.29626	455.51605	1005.81177	1624.71252	402.37894	663.54138	1588.36365	478.25549	473.45084	1587.20215	577.81519	305.16263	1553.45142	620.93292	82.96152	1501.90515	659.56042	59.02697	1572.48157	469.63950	33.72509	1251.56042	237.08905	654.30981	1299.25769	155.45442	466.49194	1289.90613	109.81747	287.53217	1321.64893	36.10228	105.85815	1380.44250	42.84668	46.05239	1314.42859	-129.27028	110.27435	1381.36792	309.37454	1780.19153	-3360.48657	2845.34619	1034.10901 
